<mxfile host="app.diagrams.net" modified="2023-12-02T10:11:12.750Z" agent="Mozilla/5.0 (X11; Linux x86_64) AppleWebKit/537.36 (KHTML, like Gecko) Chrome/118.0.0.0 Safari/537.36" version="22.1.5" etag="2Vt0eT4B1biUwVd6aCT_" type="github">
  <diagram name="Page-1" id="KRF6-NH-j1eNkxr1lYqa">
    <mxGraphModel>
      <root>
        <mxCell id="0" />
        <mxCell id="1" parent="0" />
      </root>
    </mxGraphModel>
  </diagram>
</mxfile>
